<svg xmlns="http://www.w3.org/2000/svg" width="129.561" height="176" viewBox="0 0 129.561 176">
  <g id="Grupo_1818" data-name="Grupo 1818" transform="translate(-0.5 -3640.5)">
    <g id="Grupo_1817" data-name="Grupo 1817">
      <path id="Interseção_3" data-name="Interseção 3" d="M-1847.741,214.172l-2.136-8.566-6.335,8.566h-2.359l6.929-9.412-18.895,4.711,9.794,4.7h-4.38l-6.585-3.163.789,3.163h-1.932l-.789-3.163a2.65,2.65,0,0,1,1.859-3.237l20.44-5.1a2.651,2.651,0,0,1,3.161,1.986l2.372,9.511Zm-38.9,0,.617-.839-3.364.839h-8.064l11.729-2.924a2.65,2.65,0,0,1,3.161,1.985l.234.939Zm-54.661,0,1.437-.358a.726.726,0,0,0,.521-.854l-3.3-13.248-7.31,9.884a2.723,2.723,0,0,1-2.539,1.113V208.76a.905.905,0,0,0,1.041-.329l7.042-9.565-8.083,2.015v-2.01l8.384-2.09a2.651,2.651,0,0,1,3.161,1.986l3.416,13.7a2.762,2.762,0,0,1-.12,1.7Zm12.692-3.928-3.416-13.7a2.65,2.65,0,0,1,1.859-3.237l20.44-5.1a2.65,2.65,0,0,1,3.161,1.986l3.416,13.7a2.65,2.65,0,0,1-1.859,3.237l-20.44,5.1a2.486,2.486,0,0,1-.6.073A2.682,2.682,0,0,1-1928.614,210.244Zm1.819-.454a.728.728,0,0,0,.87.547l20.439-5.1a.725.725,0,0,0,.522-.853l-3.3-13.248-7.31,9.884a2.728,2.728,0,0,1-3.419.852l-11.1-5.333ZM-1928.927,195l10.707,5.14a.909.909,0,0,0,1.146-.285l7.041-9.565Zm34.7,6.666-3.416-13.7a2.65,2.65,0,0,1,1.859-3.237l20.44-5.1a2.648,2.648,0,0,1,3.16,1.985l3.416,13.7a2.649,2.649,0,0,1-1.859,3.237l-20.439,5.1a2.486,2.486,0,0,1-.6.073A2.683,2.683,0,0,1-1894.229,201.67Zm1.818-.454a.727.727,0,0,0,.87.547l20.44-5.1a.726.726,0,0,0,.521-.854l-3.3-13.247-7.309,9.883a2.726,2.726,0,0,1-3.419.852l-11.1-5.333Zm-2.131-14.785,10.707,5.14a.91.91,0,0,0,1.146-.286l7.041-9.565Zm34.7,6.666-3.415-13.7a2.65,2.65,0,0,1,1.858-3.237l20.44-5.1a2.65,2.65,0,0,1,3.161,1.986l3.416,13.7a2.651,2.651,0,0,1-1.859,3.237l-20.44,5.1a2.486,2.486,0,0,1-.6.073A2.682,2.682,0,0,1-1859.846,193.1Zm1.819-.454a.728.728,0,0,0,.87.547l20.44-5.1a.725.725,0,0,0,.521-.853l-3.3-13.248-7.31,9.883a2.726,2.726,0,0,1-3.418.853l-11.1-5.333Zm-2.132-14.786,10.707,5.14a.909.909,0,0,0,1.146-.285l7.042-9.565Zm-91.959,11.354-.382-1.53v-7.745l2.2,8.822a.728.728,0,0,0,.871.546l20.439-5.1a.725.725,0,0,0,.521-.854l-3.3-13.247-7.309,9.883a2.726,2.726,0,0,1-3.419.852l-10-4.8v-4.061l19.264-4.8a2.651,2.651,0,0,1,3.161,1.985l3.415,13.7a2.65,2.65,0,0,1-1.858,3.237l-20.44,5.1a2.486,2.486,0,0,1-.6.073A2.683,2.683,0,0,1-1952.118,189.212Zm-.313-15.239,10.707,5.14a.909.909,0,0,0,1.146-.286l7.041-9.564Zm34.7,6.666-3.416-13.7a2.649,2.649,0,0,1,1.858-3.237l20.439-5.1a2.651,2.651,0,0,1,3.161,1.986l3.416,13.7a2.65,2.65,0,0,1-1.859,3.237l-20.44,5.1a2.524,2.524,0,0,1-.6.072A2.681,2.681,0,0,1-1917.734,180.639Zm1.818-.454a.727.727,0,0,0,.87.547l20.44-5.1a.726.726,0,0,0,.521-.854l-3.3-13.247-7.31,9.883a2.725,2.725,0,0,1-3.418.852l-11.1-5.332Zm-2.131-14.785,10.707,5.14a.909.909,0,0,0,1.146-.286l7.041-9.565Zm34.7,6.665-3.416-13.7a2.65,2.65,0,0,1,1.859-3.237l20.44-5.1a2.65,2.65,0,0,1,3.161,1.985l3.416,13.7a2.651,2.651,0,0,1-1.859,3.237l-20.44,5.1a2.484,2.484,0,0,1-.6.073A2.684,2.684,0,0,1-1883.35,172.066Zm1.819-.453a.727.727,0,0,0,.87.546l20.44-5.1a.727.727,0,0,0,.521-.854l-3.3-13.247-7.31,9.883a2.725,2.725,0,0,1-3.418.852l-11.1-5.333Zm-2.132-14.786,10.707,5.14a.909.909,0,0,0,1.146-.286l7.042-9.564Zm-68.837,3.882a.759.759,0,0,0,.026-.392l-.026-.1v-7.746l1.835,7.36a2.652,2.652,0,0,1-1.835,3.231Zm10.76-3.11-3.416-13.7a2.65,2.65,0,0,1,1.859-3.237l20.44-5.1a2.651,2.651,0,0,1,3.161,1.986l3.415,13.7a2.649,2.649,0,0,1-1.858,3.237l-20.44,5.1a2.521,2.521,0,0,1-.6.072A2.683,2.683,0,0,1-1941.739,157.6Zm1.819-.454a.727.727,0,0,0,.87.547l20.439-5.1a.726.726,0,0,0,.521-.854l-3.3-13.247-7.309,9.883a2.726,2.726,0,0,1-3.419.852l-11.1-5.333Zm-2.132-14.785,10.707,5.139a.908.908,0,0,0,1.146-.285l7.041-9.565Zm34.7,6.666-3.416-13.7a2.649,2.649,0,0,1,1.859-3.237l20.439-5.1a2.649,2.649,0,0,1,3.161,1.986l3.416,13.7a2.649,2.649,0,0,1-1.859,3.237l-20.44,5.1a2.485,2.485,0,0,1-.6.073A2.683,2.683,0,0,1-1907.355,149.027Zm1.818-.454a.727.727,0,0,0,.87.546l20.44-5.1a.725.725,0,0,0,.521-.853l-3.3-13.248-7.309,9.883a2.726,2.726,0,0,1-3.419.852l-11.1-5.333Zm-2.131-14.786,10.707,5.14a.909.909,0,0,0,1.146-.285l7.041-9.565Zm34.7,6.666-3.416-13.7a2.65,2.65,0,0,1,1.859-3.237l20.44-5.1a2.651,2.651,0,0,1,3.161,1.986l3.416,13.7a2.65,2.65,0,0,1-1.859,3.237l-20.44,5.1a2.524,2.524,0,0,1-.6.072A2.683,2.683,0,0,1-1872.971,140.453Zm1.819-.454a.727.727,0,0,0,.87.547l20.44-5.1a.725.725,0,0,0,.521-.853l-3.3-13.248-7.31,9.884a2.725,2.725,0,0,1-3.418.852l-11.1-5.332Zm-2.132-14.786,10.707,5.14a.908.908,0,0,0,1.146-.285l7.042-9.565Zm-79.215,5.263,13.618-3.4a.725.725,0,0,0,.521-.854l-3.3-13.247-7.31,9.883a2.725,2.725,0,0,1-3.418.852l-.108-.052v-2.1l.883.424a.909.909,0,0,0,1.146-.286l7.042-9.564-9.07,2.261v-2.01l9.371-2.336a2.649,2.649,0,0,1,3.161,1.985l3.416,13.7a2.651,2.651,0,0,1-1.859,3.237l-14.089,3.513Zm24.873-6.965-3.416-13.7a2.65,2.65,0,0,1,1.859-3.237l20.44-5.1a2.651,2.651,0,0,1,3.161,1.986l3.416,13.7a2.65,2.65,0,0,1-1.859,3.237l-20.44,5.1a2.471,2.471,0,0,1-.6.073A2.684,2.684,0,0,1-1927.626,123.511Zm1.819-.454a.727.727,0,0,0,.87.547l20.439-5.1a.726.726,0,0,0,.521-.854l-3.3-13.247-7.309,9.883a2.726,2.726,0,0,1-3.419.852l-11.1-5.332Zm-2.132-14.785,10.707,5.139a.908.908,0,0,0,1.146-.285l7.041-9.565Zm34.7,6.666-3.416-13.7A2.649,2.649,0,0,1-1894.8,98l20.439-5.1a2.65,2.65,0,0,1,3.161,1.985l3.416,13.7a2.649,2.649,0,0,1-1.859,3.237l-20.439,5.1a2.484,2.484,0,0,1-.6.073A2.682,2.682,0,0,1-1893.242,114.938Zm1.818-.454a.727.727,0,0,0,.87.546l20.44-5.1a.724.724,0,0,0,.521-.853l-3.3-13.248-7.309,9.883a2.726,2.726,0,0,1-3.419.852l-11.1-5.332Zm-2.131-14.786,10.707,5.14a.909.909,0,0,0,1.146-.285l7.041-9.565Zm34.7,6.666-3.416-13.7a2.65,2.65,0,0,1,1.859-3.237l20.44-5.1a2.651,2.651,0,0,1,3.161,1.986l3.416,13.7a2.65,2.65,0,0,1-1.859,3.237l-20.44,5.1a2.472,2.472,0,0,1-.6.073A2.685,2.685,0,0,1-1858.858,106.365Zm1.819-.454a.727.727,0,0,0,.87.547l20.44-5.1a.725.725,0,0,0,.521-.853l-3.3-13.248-7.31,9.884a2.725,2.725,0,0,1-3.418.852l-11.1-5.333Zm-2.132-14.786,10.707,5.14a.908.908,0,0,0,1.146-.285l7.042-9.565Zm-92.461,9.346-.868-3.48V89.242l2.687,10.775a.727.727,0,0,0,.87.547l20.44-5.1a.726.726,0,0,0,.521-.854l-3.3-13.248-7.31,9.884a2.725,2.725,0,0,1-3.418.852l-10.487-5.036V83.36l19.75-4.925a2.651,2.651,0,0,1,3.161,1.986l3.416,13.7a2.65,2.65,0,0,1-1.859,3.237l-20.44,5.1a2.472,2.472,0,0,1-.6.073A2.685,2.685,0,0,1-1951.632,100.471Zm-.313-15.24,10.708,5.14a.907.907,0,0,0,1.145-.285l7.042-9.565Zm34.7,6.667-3.416-13.7a2.65,2.65,0,0,1,1.859-3.237l20.44-5.1a2.65,2.65,0,0,1,3.161,1.986l3.416,13.7a2.65,2.65,0,0,1-1.859,3.237l-20.44,5.1a2.484,2.484,0,0,1-.6.073A2.684,2.684,0,0,1-1917.248,91.9Zm1.819-.454a.728.728,0,0,0,.87.547l20.439-5.1a.726.726,0,0,0,.522-.853l-3.3-13.248-7.31,9.884a2.728,2.728,0,0,1-3.419.852l-11.1-5.333Zm-2.132-14.786,10.707,5.14a.909.909,0,0,0,1.146-.285l7.041-9.565Zm34.7,6.666-3.416-13.7a2.65,2.65,0,0,1,1.859-3.237l20.44-5.1a2.648,2.648,0,0,1,3.16,1.985l3.416,13.7a2.649,2.649,0,0,1-1.859,3.237l-20.439,5.1a2.478,2.478,0,0,1-.6.073A2.683,2.683,0,0,1-1882.863,83.325Zm1.818-.454a.727.727,0,0,0,.87.547l20.44-5.1a.726.726,0,0,0,.521-.854l-3.3-13.247-7.309,9.883a2.726,2.726,0,0,1-3.419.852l-11.1-5.333Zm-2.131-14.785,10.707,5.14a.909.909,0,0,0,1.146-.286l7.041-9.565Zm34.7,6.666-3.415-13.7a2.65,2.65,0,0,1,1.858-3.237l20.44-5.1a2.65,2.65,0,0,1,3.161,1.986l3.416,13.7a2.651,2.651,0,0,1-1.859,3.237l-20.44,5.1a2.484,2.484,0,0,1-.6.073A2.684,2.684,0,0,1-1848.479,74.752Zm1.819-.454a.728.728,0,0,0,.87.547l20.44-5.1a.725.725,0,0,0,.521-.853l-3.3-13.248-7.31,9.883a2.726,2.726,0,0,1-3.418.853l-11.1-5.333Zm-2.132-14.786,10.707,5.14a.909.909,0,0,0,1.146-.285l7.042-9.565ZM-1952.5,74.559l.492-.123a.725.725,0,0,0,.521-.853l-1.013-4.065V61.772l2.822,11.319a2.65,2.65,0,0,1-1.859,3.237l-.964.24Zm11.748-3.693-3.416-13.7a2.651,2.651,0,0,1,1.859-3.237l20.44-5.1a2.651,2.651,0,0,1,3.161,1.985l3.415,13.7a2.65,2.65,0,0,1-1.858,3.237l-20.44,5.1a2.478,2.478,0,0,1-.6.073A2.684,2.684,0,0,1-1940.752,70.866Zm1.818-.453a.728.728,0,0,0,.871.546l20.439-5.1a.725.725,0,0,0,.521-.854l-3.3-13.247-7.309,9.883a2.726,2.726,0,0,1-3.419.852l-11.1-5.333Zm-2.131-14.786,10.707,5.14a.909.909,0,0,0,1.146-.286l7.041-9.564Zm34.7,6.666-3.416-13.7a2.649,2.649,0,0,1,1.859-3.237l20.439-5.1a2.651,2.651,0,0,1,3.161,1.986l3.416,13.7a2.65,2.65,0,0,1-1.859,3.237l-20.44,5.1a2.472,2.472,0,0,1-.6.073A2.683,2.683,0,0,1-1906.367,62.294Zm1.818-.454a.727.727,0,0,0,.87.547l20.44-5.1a.726.726,0,0,0,.521-.854l-3.3-13.247-7.31,9.883a2.725,2.725,0,0,1-3.418.852l-11.1-5.333Zm-2.131-14.785,10.707,5.14a.91.91,0,0,0,1.146-.286l7.041-9.565Zm34.7,6.665-3.416-13.7a2.758,2.758,0,0,1,.183-1.847h4.162l-1.242.31,10.707,5.14a.909.909,0,0,0,1.146-.286l3.8-5.163h2.376l-4.68,6.328a2.725,2.725,0,0,1-3.418.852l-11.1-5.333,3.3,13.248a.727.727,0,0,0,.87.546l20.44-5.1a.727.727,0,0,0,.521-.854l-2.417-9.692h1.931l2.294,9.2a2.651,2.651,0,0,1-1.859,3.237l-20.44,5.1a2.479,2.479,0,0,1-.6.073A2.684,2.684,0,0,1-1871.984,53.72Zm-80.516-8.186,10.871-2.711a.725.725,0,0,0,.521-.853l-.947-3.8h1.931l.825,3.308a2.65,2.65,0,0,1-1.859,3.237l-11.343,2.828Zm22.126-6.281-.27-1.082h1.932l.157.628a.727.727,0,0,0,.87.547l4.714-1.175h8.062l-12.3,3.068a2.471,2.471,0,0,1-.6.073A2.685,2.685,0,0,1-1930.373,39.254Zm-22.126-1.082h1.1l-.321.434a2.768,2.768,0,0,1-.779.726Z" transform="translate(1953 3602.328)" fill="#3a3a3a"/>
    </g>
  </g>
</svg>
