<svg xmlns="http://www.w3.org/2000/svg" width="23.369" height="17.372" viewBox="0 0 23.369 17.372">
  <g id="Grupo_1821" data-name="Grupo 1821" transform="translate(-2 -6)">
    <path id="Caminho_2529" data-name="Caminho 2529" d="M23.066,6H4.3A2.36,2.36,0,0,0,2,8.4V20.975a2.36,2.36,0,0,0,2.3,2.4H23.066a2.36,2.36,0,0,0,2.3-2.4V8.4A2.36,2.36,0,0,0,23.066,6Zm-.709,1.737L14.21,14.486a.809.809,0,0,1-1.052,0L5.013,7.737Zm.709,13.9H4.3a.648.648,0,0,1-.634-.66V8.814l8.446,7a2.428,2.428,0,0,0,3.138,0L23.7,8.849v12.16A.646.646,0,0,1,23.066,21.635Z"/>
  </g>
</svg>
