<svg xmlns="http://www.w3.org/2000/svg" width="136" height="56" viewBox="0 0 136 56">
  <g id="Grupo_7111" data-name="Grupo 7111" transform="translate(-481 -5735.751)">
    <rect id="Ret창ngulo_2942" data-name="Ret창ngulo 2942" width="136" height="46" rx="8" transform="translate(481 5745.751)"/>
    <rect id="Ret창ngulo_2941" data-name="Ret창ngulo 2941" width="136" height="40" rx="8" transform="translate(481 5735.751)" fill="#fff"/>
    <g id="Camada_x0020_1" transform="translate(491.594 5742.635)">
      <path id="Caminho_6604" data-name="Caminho 6604" d="M1350.066,254.259a4.345,4.345,0,0,1-.347,1.716,4.478,4.478,0,0,1-.944,1.4,4.6,4.6,0,0,1-1.406.941,4.463,4.463,0,0,1-3.3.059,4.317,4.317,0,0,1-1.373-.838,4.252,4.252,0,0,1-1.358.838,4.392,4.392,0,0,1-1.583.288,4.312,4.312,0,0,1-1.719-.347,4.531,4.531,0,0,1-1.4-.941,4.428,4.428,0,0,1-.948-1.4,4.347,4.347,0,0,1-.347-1.716v-7.372h2.952v7.372a1.4,1.4,0,0,0,.115.568,1.436,1.436,0,0,0,.314.465,1.5,1.5,0,0,0,.465.314,1.461,1.461,0,0,0,.568.114,1.508,1.508,0,0,0,.572-.114,1.548,1.548,0,0,0,.476-.314,1.437,1.437,0,0,0,.432-1.033v-7.372h2.941v7.372a1.4,1.4,0,0,0,.118.568,1.518,1.518,0,0,0,.321.465,1.5,1.5,0,0,0,.465.314,1.444,1.444,0,0,0,.565.114,1.471,1.471,0,0,0,1.044-.428,1.589,1.589,0,0,0,.321-.465,1.4,1.4,0,0,0,.118-.568v-7.372h2.941Zm6.745,1.35a1.408,1.408,0,0,0,.347.07c.114.011.229.018.343.018a2.974,2.974,0,0,0,.834-.118,3.053,3.053,0,0,0,.749-.343,2.732,2.732,0,0,0,.627-.539,2.851,2.851,0,0,0,.45-.709l2.162,2.173a5.935,5.935,0,0,1-.945,1.048,6.111,6.111,0,0,1-1.159.79,5.78,5.78,0,0,1-1.306.491,6,6,0,0,1-1.413.17,5.844,5.844,0,0,1-4.177-1.72,5.93,5.93,0,0,1-1.269-1.93,6.345,6.345,0,0,1-.465-2.461,6.543,6.543,0,0,1,.465-2.505,5.656,5.656,0,0,1,3.151-3.181,5.97,5.97,0,0,1,2.295-.443,5.857,5.857,0,0,1,1.417.173,5.8,5.8,0,0,1,1.313.5,5.945,5.945,0,0,1,1.162.793,5.747,5.747,0,0,1,.952,1.055Zm1.513-6.085a1.663,1.663,0,0,0-.406-.1,3.812,3.812,0,0,0-.417-.022,2.961,2.961,0,0,0-1.14.221,2.773,2.773,0,0,0-.93.631,3,3,0,0,0-.62.989,3.542,3.542,0,0,0-.229,1.3c0,.111.007.232.019.369a4.141,4.141,0,0,0,.052.417c.026.14.056.273.092.406a1.626,1.626,0,0,0,.14.343Zm10.021,6.085a1.41,1.41,0,0,0,.347.07c.114.011.229.018.343.018a2.971,2.971,0,0,0,.834-.118,3.052,3.052,0,0,0,.749-.343,2.737,2.737,0,0,0,.627-.539,2.848,2.848,0,0,0,.45-.709l2.162,2.173a5.93,5.93,0,0,1-.945,1.048,6.113,6.113,0,0,1-1.159.79,5.782,5.782,0,0,1-1.306.491,5.993,5.993,0,0,1-1.413.17,5.844,5.844,0,0,1-4.177-1.72,5.93,5.93,0,0,1-1.269-1.93,6.342,6.342,0,0,1-.465-2.461,6.54,6.54,0,0,1,.465-2.505,5.657,5.657,0,0,1,3.151-3.181,5.971,5.971,0,0,1,2.3-.443,5.9,5.9,0,0,1,2.73.671,5.955,5.955,0,0,1,1.162.793,5.742,5.742,0,0,1,.952,1.055Zm1.513-6.085a1.664,1.664,0,0,0-.406-.1,3.813,3.813,0,0,0-.417-.022,2.961,2.961,0,0,0-1.14.221,2.771,2.771,0,0,0-.93.631,3,3,0,0,0-.62.989,3.548,3.548,0,0,0-.229,1.3c0,.111.008.232.019.369a4.141,4.141,0,0,0,.052.417c.026.14.055.273.092.406a1.613,1.613,0,0,0,.14.343Zm11.306,8.918a5.043,5.043,0,0,1-2.011-.406,5.221,5.221,0,0,1-1.649-1.114,5.312,5.312,0,0,1-1.114-1.646,5.044,5.044,0,0,1-.4-2.011v-3.439h-1.439v-2.941h1.439v-2.929l2.941-1.7v4.627h4.472v2.941h-4.472v3.439a2.222,2.222,0,0,0,.17.871,2.286,2.286,0,0,0,.476.7,2.262,2.262,0,0,0,.716.483,2.192,2.192,0,0,0,.875.177h4.241v2.941Z" transform="translate(-1308.496 -237.39)" fill="#fc0"/>
      <path id="Caminho_6605" data-name="Caminho 6605" d="M3881.078,258.443h-2.948V242.26h2.948v5.114a3.479,3.479,0,0,1,1.092-.568,4.051,4.051,0,0,1,1.148-.166,4.988,4.988,0,0,1,2.011.406,5.1,5.1,0,0,1,1.638,1.11,5.37,5.37,0,0,1,1.1,1.657,5.074,5.074,0,0,1,.4,2.015v6.616h-2.97v-6.616h.022a2.181,2.181,0,0,0-.174-.86,2.275,2.275,0,0,0-.476-.708,2.335,2.335,0,0,0-.7-.476,2.134,2.134,0,0,0-.852-.173,2.243,2.243,0,0,0-.875.173,2.292,2.292,0,0,0-.716.476,2.332,2.332,0,0,0-.476.708,2.181,2.181,0,0,0-.174.86Zm17.914-1.35a7.78,7.78,0,0,1-.76.609,5.589,5.589,0,0,1-.849.5,5.433,5.433,0,0,1-.915.336,3.807,3.807,0,0,1-.956.125,5.369,5.369,0,0,1-2.011-.38,4.855,4.855,0,0,1-2.76-2.771,5.881,5.881,0,0,1-.406-2.243v-6.4h2.941v6.4a2.869,2.869,0,0,0,.177,1.04,2.329,2.329,0,0,0,.479.775,2.105,2.105,0,0,0,.708.476,2.345,2.345,0,0,0,.871.162,1.839,1.839,0,0,0,.86-.21,2.535,2.535,0,0,0,.709-.557,2.67,2.67,0,0,0,.476-.786,2.439,2.439,0,0,0,.173-.9v-6.4h2.948v11.579Zm15.523-4.542a6.442,6.442,0,0,1-.465,2.487,5.912,5.912,0,0,1-1.262,1.93,5.611,5.611,0,0,1-1.878,1.247,5.938,5.938,0,0,1-2.306.446,5.845,5.845,0,0,1-4.18-1.72,5.989,5.989,0,0,1-1.269-1.93,6.338,6.338,0,0,1-.465-2.461V242.26l2.963,1.714v3.692a2.618,2.618,0,0,1,.579-.539,3.49,3.49,0,0,1,.735-.391,5.041,5.041,0,0,1,.815-.233,4.566,4.566,0,0,1,.823-.081,5.811,5.811,0,0,1,2.306.461,5.7,5.7,0,0,1,1.878,1.28,6.121,6.121,0,0,1,1.262,1.941A6.3,6.3,0,0,1,3914.516,252.551Zm-2.971,0a3.307,3.307,0,0,0-.232-1.247,3.056,3.056,0,0,0-.635-1,2.877,2.877,0,0,0-.934-.661,2.777,2.777,0,0,0-1.14-.236,2.513,2.513,0,0,0-1.14.266,3.115,3.115,0,0,0-.937.7,3.313,3.313,0,0,0-.627,1,3.137,3.137,0,0,0-.225,1.173,3.333,3.333,0,0,0,.225,1.243,3.068,3.068,0,0,0,.627,1,3,3,0,0,0,.937.664,2.789,2.789,0,0,0,2.28,0,2.946,2.946,0,0,0,.934-.664,3.083,3.083,0,0,0,.635-1A3.274,3.274,0,0,0,3911.545,252.551Z" transform="translate(-3800.172 -237.39)"/>
      <path id="Caminho_6606" data-name="Caminho 6606" d="M3.266,4.654,11.324,0l5.658,3.267h0l5.662,3.269v13.07l-1.139.658L11.324,14.371,3.382,18.957l3.41,1.969v0l4.534,2.618,4.534-2.618v0l.148-.083,2.25,1.3-1.269.73h0l-5.658,3.267L5.667,22.874h0L0,19.605V6.536l2.258,1.3V17l9.066-5.235L20.391,17V7.833L15.858,5.216v0L12.453,3.248V9.433l-1.129.657L10.2,9.433V3.248l-4.683,2.7Z" fill="#1a1a1a"/>
    </g>
    <text id="e-Commerce_Certificado" data-name="e-Commerce Certificado" transform="translate(505 5786.751)" fill="#fff" font-size="11" font-family="Oswald-Regular, Oswald"><tspan x="0" y="0">e-Commerce Certificado</tspan></text>
    <g id="check-svgrepo-com" transform="translate(489.998 5777.121)">
      <g id="Grupo_7110" data-name="Grupo 7110" transform="translate(0 0)">
        <path id="Caminho_6609" data-name="Caminho 6609" d="M16.446,6.558l-.221-.3a.725.725,0,0,1-.007-.843l.216-.3a.723.723,0,0,0-.25-1.054l-.329-.178a.724.724,0,0,1-.372-.756l.062-.37a.721.721,0,0,0-.682-.84l-.374-.017a.721.721,0,0,1-.663-.521l-.1-.36a.72.72,0,0,0-.979-.461L12.4.7a.72.72,0,0,1-.823-.182L11.328.24a.723.723,0,0,0-1.083.007L10,.53a.723.723,0,0,1-.819.194L8.836.583a.722.722,0,0,0-.972.478l-.1.36a.711.711,0,0,1-.651.533l-.374.022a.719.719,0,0,0-.667.85l.067.367a.721.721,0,0,1-.36.761l-.326.182a.721.721,0,0,0-.233,1.056l.221.3a.725.725,0,0,1,.007.843l-.216.3A.723.723,0,0,0,5.483,7.7l.329.178a.724.724,0,0,1,.372.756L6.119,9a.721.721,0,0,0,.682.84l.374.017a.721.721,0,0,1,.663.521l.1.36a.72.72,0,0,0,.979.461l.343-.149a.723.723,0,0,1,.823.18l.25.278A.723.723,0,0,0,11.42,11.5l.245-.283a.723.723,0,0,1,.819-.194l.346.142a.722.722,0,0,0,.972-.478l.1-.36a.726.726,0,0,1,.655-.531l.374-.022a.719.719,0,0,0,.667-.85l-.067-.367a.721.721,0,0,1,.36-.761l.326-.182A.72.72,0,0,0,16.446,6.558ZM10.834,9.667a3.791,3.791,0,1,1,3.791-3.791A3.791,3.791,0,0,1,10.834,9.667Z" transform="translate(-5.082 0)" fill="#fc0"/>
        <path id="Caminho_6610" data-name="Caminho 6610" d="M175.085,190.148l-.336-.339a.515.515,0,0,0-.727,0h0a.515.515,0,0,0,0,.727l.336.338.374.374a.5.5,0,0,0,.708,0l.375-.372,1.306-1.3a.515.515,0,0,0,0-.727h0a.515.515,0,0,0-.727,0Z" transform="translate(-169.818 -184.17)" fill="#fc0"/>
      </g>
    </g>
  </g>
</svg>
