<svg xmlns="http://www.w3.org/2000/svg" width="36.509" height="28.464" viewBox="0 0 36.509 28.464">
  <g id="Grupo_1830" data-name="Grupo 1830" transform="translate(-12.173 -4.848)">
    <g id="Grupo_1829" data-name="Grupo 1829">
      <path id="truck-svgrepo-com" d="M36.509,69.291,30.431,59.275l-6.22,0L24.2,70.736l7.23,0V69.22l-5.709,0,.005-8.423,3.843,0,5.413,8.92,0,7.532h-2.4a4.444,4.444,0,0,0-8.757-.005H22.008l.01-17.97H19.383l0-5.271L.014,53.986,0,78.749l3.922,0A4.432,4.432,0,0,0,8.3,82.438h0a4.451,4.451,0,0,0,4.378-3.682l11.145.006A4.453,4.453,0,0,0,28.2,82.45h0a4.453,4.453,0,0,0,4.379-3.682l3.922,0ZM8.3,80.917h0A2.924,2.924,0,1,1,11.225,78,2.94,2.94,0,0,1,8.3,80.917ZM20.487,77.24l-7.807,0a4.444,4.444,0,0,0-8.757-.005h-2.4l.013-21.721,16.33.009,0,5.272H20.5Zm7.716,3.69h0a2.924,2.924,0,1,1,2.926-2.923A2.928,2.928,0,0,1,28.2,80.929Z" transform="translate(12.173 -49.138)" fill="#fff"/>
    </g>
  </g>
</svg>
