<svg xmlns="http://www.w3.org/2000/svg" width="170.869" height="25.52" viewBox="0 0 170.869 25.52">
  <g id="Grupo_1828" data-name="Grupo 1828" transform="translate(-340.481 -3937)">
    <g id="star-svgrepo-com" transform="translate(340.481 3937)">
      <g id="Grupo_1777" data-name="Grupo 1777" transform="translate(0 0)">
        <path id="Caminho_2703" data-name="Caminho 2703" d="M26.706,20.662a.838.838,0,0,0-.677-.571L17.8,18.9l-3.678-7.453a.838.838,0,0,0-1.5,0L8.943,18.9l-8.225,1.2a.838.838,0,0,0-.465,1.43l5.952,5.8L4.8,35.515a.838.838,0,0,0,1.217.884l7.357-3.868L20.73,36.4a.838.838,0,0,0,1.217-.884l-1.405-8.192,5.952-5.8A.838.838,0,0,0,26.706,20.662Z" transform="translate(0 -10.975)" fill="#cecece"/>
      </g>
    </g>
    <path id="Caminho_2703-2" data-name="Caminho 2703" d="M26.706,20.662a.838.838,0,0,0-.677-.571L17.8,18.9l-3.678-7.453a.838.838,0,0,0-1.5,0L8.943,18.9l-8.225,1.2a.838.838,0,0,0-.465,1.43l5.952,5.8L4.8,35.515a.838.838,0,0,0,1.217.884l7.357-3.868L20.73,36.4a.838.838,0,0,0,1.217-.884l-1.405-8.192,5.952-5.8A.838.838,0,0,0,26.706,20.662Z" transform="translate(376.511 3926.025)" fill="#cecece"/>
    <path id="Caminho_2703-3" data-name="Caminho 2703" d="M26.706,20.662a.838.838,0,0,0-.677-.571L17.8,18.9l-3.678-7.453a.838.838,0,0,0-1.5,0L8.943,18.9l-8.225,1.2a.838.838,0,0,0-.465,1.43l5.952,5.8L4.8,35.515a.838.838,0,0,0,1.217.884l7.357-3.868L20.73,36.4a.838.838,0,0,0,1.217-.884l-1.405-8.192,5.952-5.8A.838.838,0,0,0,26.706,20.662Z" transform="translate(412.542 3926.025)" fill="#cecece"/>
    <path id="Caminho_2703-4" data-name="Caminho 2703" d="M26.706,20.662a.838.838,0,0,0-.677-.571L17.8,18.9l-3.678-7.453a.838.838,0,0,0-1.5,0L8.943,18.9l-8.225,1.2a.838.838,0,0,0-.465,1.43l5.952,5.8L4.8,35.515a.838.838,0,0,0,1.217.884l7.357-3.868L20.73,36.4a.838.838,0,0,0,1.217-.884l-1.405-8.192,5.952-5.8A.838.838,0,0,0,26.706,20.662Z" transform="translate(448.572 3926.025)" fill="#cecece"/>
    <path id="Caminho_2703-5" data-name="Caminho 2703" d="M26.706,20.662a.838.838,0,0,0-.677-.571L17.8,18.9l-3.678-7.453a.838.838,0,0,0-1.5,0L8.943,18.9l-8.225,1.2a.838.838,0,0,0-.465,1.43l5.952,5.8L4.8,35.515a.838.838,0,0,0,1.217.884l7.357-3.868L20.73,36.4a.838.838,0,0,0,1.217-.884l-1.405-8.192,5.952-5.8A.838.838,0,0,0,26.706,20.662Z" transform="translate(484.603 3926.025)" fill="#cecece"/>
  </g>
</svg>
